<?xml version="1.0" encoding="UTF-8"?>
<svg width="360" height="360" viewBox="0 0 360 360" fill="none" xmlns="http://www.w3.org/2000/svg">
    <rect width="360" height="360" rx="24" fill="#F7F8FA"/>
    <g transform="translate(65 60)">
        <path d="M190.4 71.2c-9.4-10.8-20.7-17.8-33.9-21c-13.2-3.2-27.8-1.6-44 4.8l-6.4 2.4c-16.8 6.3-32.1 7.8-45.9 4.5C46.3 58.6 35.8 51.7 27 41.1L14 52.6c11.2 13.5 24.8 22.4 40.8 26.8 16.1 4.5 33.9 3.1 53.5-4.1l6.4-2.4c15-5.6 28-6.9 39-4 11 3 20.2 9.3 27.7 19l9-7.7z" fill="#00539B"/>
        <path d="M63.5 95.2h33.6v123.6H63.5V95.2z" fill="#00539B"/>
        <path d="M110.5 78.8H144v140H110.5v-140z" fill="#2170C8"/>
        <path d="M157.3 108h33.6v110.8h-33.6V108z" fill="#3A8DE6"/>
        <path d="M204.3 134.4h33.6v84.4h-33.6v-84.4z" fill="#5BA4F2"/>
        <path d="M224.3 56.4c-17.2 24.2-33 46-47.3 65.4-14.3 19.3-28 36-41 50.2l11.9 11c12.9-13.8 27-30.9 42.3-51.3 15.3-20.5 31.8-44.2 49.5-71l-15.4-4.3z" fill="#2170C8"/>
        <path d="M253 54.8c-4.8-1.7-9.2 0-13 5.1-3.9 5.2-9.4 13-16.7 23.5l-2.4 3.4 31.6 10.4c5.7 1.8 10.7-0.2 15.1-6.1 4.4-6 5.4-11.6 3.1-16.8-2.3-5.1-7.1-8.7-13.4-10.5l-4.3-1.3z" fill="#00539B"/>
    </g>
    <g transform="translate(40 280)">
        <text x="140" y="28" text-anchor="middle" font-family="'Segoe UI', 'Inter', sans-serif" font-size="42" font-weight="700" fill="#1A1E2A">YOUTILITY</text>
        <text x="140" y="68" text-anchor="middle" font-family="'Segoe UI', 'Inter', sans-serif" font-size="32" letter-spacing="4" fill="#00539B">TECHNOLOGIES</text>
    </g>
</svg>
